# Tiled2Unity generated file. Do not modify by hand.
# Wavefront file for 'Dirt_red_mesh_0001.obj'

# Vertices (Count = 368)
v 0 -7 0
v -0.5 -7 0
v -0.5 -6.5 0
v 0 -6.5 0
v -2.5 -8 0
v -3 -8 0
v -3 -7.5 0
v -2.5 -7.5 0
v -3 -8 0
v -3.5 -8 0
v -3.5 -7.5 0
v -3 -7.5 0
v -3.5 -8 0
v -4 -8 0
v -4 -7.5 0
v -3.5 -7.5 0
v -4 -8 0
v -4.5 -8 0
v -4.5 -7.5 0
v -4 -7.5 0
v -4.5 -8 0
v -5 -8 0
v -5 -7.5 0
v -4.5 -7.5 0
v -5 -8 0
v -5.5 -8 0
v -5.5 -7.5 0
v -5 -7.5 0
v -14.5 -8 0
v -15 -8 0
v -15 -7.5 0
v -14.5 -7.5 0
v 0 -8.5 0
v -0.5 -8.5 0
v -0.5 -8 0
v 0 -8 0
v -0.5 -8.5 0
v -1 -8.5 0
v -1 -8 0
v -0.5 -8 0
v -1 -8.5 0
v -1.5 -8.5 0
v -1.5 -8 0
v -1 -8 0
v -1.5 -8.5 0
v -2 -8.5 0
v -2 -8 0
v -1.5 -8 0
v -2 -8.5 0
v -2.5 -8.5 0
v -2.5 -8 0
v -2 -8 0
v -2.5 -8.5 0
v -3 -8.5 0
v -3 -8 0
v -2.5 -8 0
v -3 -8.5 0
v -3.5 -8.5 0
v -3.5 -8 0
v -3 -8 0
v -3.5 -8.5 0
v -4 -8.5 0
v -4 -8 0
v -3.5 -8 0
v -4 -8.5 0
v -4.5 -8.5 0
v -4.5 -8 0
v -4 -8 0
v -4.5 -8.5 0
v -5 -8.5 0
v -5 -8 0
v -4.5 -8 0
v -5 -8.5 0
v -5.5 -8.5 0
v -5.5 -8 0
v -5 -8 0
v -5.5 -8.5 0
v -6 -8.5 0
v -6 -8 0
v -5.5 -8 0
v -6 -8.5 0
v -6.5 -8.5 0
v -6.5 -8 0
v -6 -8 0
v -6.5 -8.5 0
v -7 -8.5 0
v -7 -8 0
v -6.5 -8 0
v -8 -8.5 0
v -8.5 -8.5 0
v -8.5 -8 0
v -8 -8 0
v -8.5 -8.5 0
v -9 -8.5 0
v -9 -8 0
v -8.5 -8 0
v -9 -8.5 0
v -9.5 -8.5 0
v -9.5 -8 0
v -9 -8 0
v -9.5 -8.5 0
v -10 -8.5 0
v -10 -8 0
v -9.5 -8 0
v -10 -8.5 0
v -10.5 -8.5 0
v -10.5 -8 0
v -10 -8 0
v -10.5 -8.5 0
v -11 -8.5 0
v -11 -8 0
v -10.5 -8 0
v -11 -8.5 0
v -11.5 -8.5 0
v -11.5 -8 0
v -11 -8 0
v -11.5 -8.5 0
v -12 -8.5 0
v -12 -8 0
v -11.5 -8 0
v -12 -8.5 0
v -12.5 -8.5 0
v -12.5 -8 0
v -12 -8 0
v -12.5 -8.5 0
v -13 -8.5 0
v -13 -8 0
v -12.5 -8 0
v -13 -8.5 0
v -13.5 -8.5 0
v -13.5 -8 0
v -13 -8 0
v -13.5 -8.5 0
v -14 -8.5 0
v -14 -8 0
v -13.5 -8 0
v -14 -8.5 0
v -14.5 -8.5 0
v -14.5 -8 0
v -14 -8 0
v -14.5 -8.5 0
v -15 -8.5 0
v -15 -8 0
v -14.5 -8 0
v 0 -9 0
v -0.5 -9 0
v -0.5 -8.5 0
v 0 -8.5 0
v -0.5 -9 0
v -1 -9 0
v -1 -8.5 0
v -0.5 -8.5 0
v -1 -9 0
v -1.5 -9 0
v -1.5 -8.5 0
v -1 -8.5 0
v -1.5 -9 0
v -2 -9 0
v -2 -8.5 0
v -1.5 -8.5 0
v -2 -9 0
v -2.5 -9 0
v -2.5 -8.5 0
v -2 -8.5 0
v -2.5 -9 0
v -3 -9 0
v -3 -8.5 0
v -2.5 -8.5 0
v -3 -9 0
v -3.5 -9 0
v -3.5 -8.5 0
v -3 -8.5 0
v -3.5 -9 0
v -4 -9 0
v -4 -8.5 0
v -3.5 -8.5 0
v -4 -9 0
v -4.5 -9 0
v -4.5 -8.5 0
v -4 -8.5 0
v -4.5 -9 0
v -5 -9 0
v -5 -8.5 0
v -4.5 -8.5 0
v -5 -9 0
v -5.5 -9 0
v -5.5 -8.5 0
v -5 -8.5 0
v -5.5 -9 0
v -6 -9 0
v -6 -8.5 0
v -5.5 -8.5 0
v -6 -9 0
v -6.5 -9 0
v -6.5 -8.5 0
v -6 -8.5 0
v -6.5 -9 0
v -7 -9 0
v -7 -8.5 0
v -6.5 -8.5 0
v -8 -9 0
v -8.5 -9 0
v -8.5 -8.5 0
v -8 -8.5 0
v -8.5 -9 0
v -9 -9 0
v -9 -8.5 0
v -8.5 -8.5 0
v -9 -9 0
v -9.5 -9 0
v -9.5 -8.5 0
v -9 -8.5 0
v -9.5 -9 0
v -10 -9 0
v -10 -8.5 0
v -9.5 -8.5 0
v -10 -9 0
v -10.5 -9 0
v -10.5 -8.5 0
v -10 -8.5 0
v -10.5 -9 0
v -11 -9 0
v -11 -8.5 0
v -10.5 -8.5 0
v -11 -9 0
v -11.5 -9 0
v -11.5 -8.5 0
v -11 -8.5 0
v -11.5 -9 0
v -12 -9 0
v -12 -8.5 0
v -11.5 -8.5 0
v -12 -9 0
v -12.5 -9 0
v -12.5 -8.5 0
v -12 -8.5 0
v -12.5 -9 0
v -13 -9 0
v -13 -8.5 0
v -12.5 -8.5 0
v -13 -9 0
v -13.5 -9 0
v -13.5 -8.5 0
v -13 -8.5 0
v -13.5 -9 0
v -14 -9 0
v -14 -8.5 0
v -13.5 -8.5 0
v -14 -9 0
v -14.5 -9 0
v -14.5 -8.5 0
v -14 -8.5 0
v -14.5 -9 0
v -15 -9 0
v -15 -8.5 0
v -14.5 -8.5 0
v 0 -9.5 0
v -0.5 -9.5 0
v -0.5 -9 0
v 0 -9 0
v -0.5 -9.5 0
v -1 -9.5 0
v -1 -9 0
v -0.5 -9 0
v -1 -9.5 0
v -1.5 -9.5 0
v -1.5 -9 0
v -1 -9 0
v -1.5 -9.5 0
v -2 -9.5 0
v -2 -9 0
v -1.5 -9 0
v -2 -9.5 0
v -2.5 -9.5 0
v -2.5 -9 0
v -2 -9 0
v -2.5 -9.5 0
v -3 -9.5 0
v -3 -9 0
v -2.5 -9 0
v -3 -9.5 0
v -3.5 -9.5 0
v -3.5 -9 0
v -3 -9 0
v -3.5 -9.5 0
v -4 -9.5 0
v -4 -9 0
v -3.5 -9 0
v -4 -9.5 0
v -4.5 -9.5 0
v -4.5 -9 0
v -4 -9 0
v -4.5 -9.5 0
v -5 -9.5 0
v -5 -9 0
v -4.5 -9 0
v -5 -9.5 0
v -5.5 -9.5 0
v -5.5 -9 0
v -5 -9 0
v -5.5 -9.5 0
v -6 -9.5 0
v -6 -9 0
v -5.5 -9 0
v -6 -9.5 0
v -6.5 -9.5 0
v -6.5 -9 0
v -6 -9 0
v -6.5 -9.5 0
v -7 -9.5 0
v -7 -9 0
v -6.5 -9 0
v -8 -9.5 0
v -8.5 -9.5 0
v -8.5 -9 0
v -8 -9 0
v -8.5 -9.5 0
v -9 -9.5 0
v -9 -9 0
v -8.5 -9 0
v -9 -9.5 0
v -9.5 -9.5 0
v -9.5 -9 0
v -9 -9 0
v -9.5 -9.5 0
v -10 -9.5 0
v -10 -9 0
v -9.5 -9 0
v -10 -9.5 0
v -10.5 -9.5 0
v -10.5 -9 0
v -10 -9 0
v -10.5 -9.5 0
v -11 -9.5 0
v -11 -9 0
v -10.5 -9 0
v -11 -9.5 0
v -11.5 -9.5 0
v -11.5 -9 0
v -11 -9 0
v -11.5 -9.5 0
v -12 -9.5 0
v -12 -9 0
v -11.5 -9 0
v -12 -9.5 0
v -12.5 -9.5 0
v -12.5 -9 0
v -12 -9 0
v -12.5 -9.5 0
v -13 -9.5 0
v -13 -9 0
v -12.5 -9 0
v -13 -9.5 0
v -13.5 -9.5 0
v -13.5 -9 0
v -13 -9 0
v -13.5 -9.5 0
v -14 -9.5 0
v -14 -9 0
v -13.5 -9 0
v -14 -9.5 0
v -14.5 -9.5 0
v -14.5 -9 0
v -14 -9 0
v -14.5 -9.5 0
v -15 -9.5 0
v -15 -9 0
v -14.5 -9 0

# Texture cooridinates (Count = 44)
vt 0.6667888 0.0001220703
vt 0.9998779 0.0001220703
vt 0.9998779 0.2498779
vt 0.6667888 0.2498779
vt 0.6667888 0.7501221
vt 0.9998779 0.7501221
vt 0.9998779 0.9998779
vt 0.6667888 0.9998779
vt 0.3334554 0.7501221
vt 0.6665446 0.7501221
vt 0.6665446 0.9998779
vt 0.3334554 0.9998779
vt 0.0001220703 0.7501221
vt 0.3332113 0.7501221
vt 0.3332113 0.9998779
vt 0.0001220703 0.9998779
vt 0.3334554 0.0001220703
vt 0.6665446 0.0001220703
vt 0.6665446 0.2498779
vt 0.3334554 0.2498779
vt 0.3334554 0.5001221
vt 0.6665446 0.5001221
vt 0.6665446 0.7498779
vt 0.3334554 0.7498779
vt 0.6667888 0.5001221
vt 0.9998779 0.5001221
vt 0.9998779 0.7498779
vt 0.6667888 0.7498779
vt 0.0001220703 0.5001221
vt 0.3332113 0.5001221
vt 0.3332113 0.7498779
vt 0.0001220703 0.7498779
vt 0.3334554 0.2501221
vt 0.6665446 0.2501221
vt 0.6665446 0.4998779
vt 0.3334554 0.4998779
vt 0.0001220703 0.2501221
vt 0.3332113 0.2501221
vt 0.3332113 0.4998779
vt 0.0001220703 0.4998779
vt 0.6667888 0.2501221
vt 0.9998779 0.2501221
vt 0.9998779 0.4998779
vt 0.6667888 0.4998779

# Normal
vn 0 0 -1

# Mesh description
g Dirt_red_mesh_0001

# Faces
f 1/1/1 2/2/1 3/3/1 4/4/1
f 5/5/1 6/6/1 7/7/1 8/8/1
f 9/9/1 10/10/1 11/11/1 12/12/1
f 13/13/1 14/14/1 15/15/1 16/16/1
f 17/5/1 18/6/1 19/7/1 20/8/1
f 21/13/1 22/14/1 23/15/1 24/16/1
f 25/5/1 26/6/1 27/7/1 28/8/1
f 29/17/1 30/18/1 31/19/1 32/20/1
f 33/9/1 34/10/1 35/11/1 36/12/1
f 37/13/1 38/14/1 39/15/1 40/16/1
f 41/5/1 42/6/1 43/7/1 44/8/1
f 45/13/1 46/14/1 47/15/1 48/16/1
f 49/5/1 50/6/1 51/7/1 52/8/1
f 53/21/1 54/22/1 55/23/1 56/24/1
f 57/21/1 58/22/1 59/23/1 60/24/1
f 61/25/1 62/26/1 63/27/1 64/28/1
f 65/21/1 66/22/1 67/23/1 68/24/1
f 69/29/1 70/30/1 71/31/1 72/32/1
f 73/25/1 74/26/1 75/27/1 76/28/1
f 77/13/1 78/14/1 79/15/1 80/16/1
f 81/13/1 82/14/1 83/15/1 84/16/1
f 85/9/1 86/10/1 87/11/1 88/12/1
f 89/13/1 90/14/1 91/15/1 92/16/1
f 93/5/1 94/6/1 95/7/1 96/8/1
f 97/13/1 98/14/1 99/15/1 100/16/1
f 101/13/1 102/14/1 103/15/1 104/16/1
f 105/13/1 106/14/1 107/15/1 108/16/1
f 109/13/1 110/14/1 111/15/1 112/16/1
f 113/9/1 114/10/1 115/11/1 116/12/1
f 117/9/1 118/10/1 119/11/1 120/12/1
f 121/5/1 122/6/1 123/7/1 124/8/1
f 125/5/1 126/6/1 127/7/1 128/8/1
f 129/13/1 130/14/1 131/15/1 132/16/1
f 133/13/1 134/14/1 135/15/1 136/16/1
f 137/5/1 138/6/1 139/7/1 140/8/1
f 141/13/1 142/14/1 143/15/1 144/16/1
f 145/21/1 146/22/1 147/23/1 148/24/1
f 149/21/1 150/22/1 151/23/1 152/24/1
f 153/21/1 154/22/1 155/23/1 156/24/1
f 157/21/1 158/22/1 159/23/1 160/24/1
f 161/21/1 162/22/1 163/23/1 164/24/1
f 165/21/1 166/22/1 167/23/1 168/24/1
f 169/21/1 170/22/1 171/23/1 172/24/1
f 173/21/1 174/22/1 175/23/1 176/24/1
f 177/21/1 178/22/1 179/23/1 180/24/1
f 181/21/1 182/22/1 183/23/1 184/24/1
f 185/21/1 186/22/1 187/23/1 188/24/1
f 189/21/1 190/22/1 191/23/1 192/24/1
f 193/21/1 194/22/1 195/23/1 196/24/1
f 197/21/1 198/22/1 199/23/1 200/24/1
f 201/21/1 202/22/1 203/23/1 204/24/1
f 205/21/1 206/22/1 207/23/1 208/24/1
f 209/21/1 210/22/1 211/23/1 212/24/1
f 213/21/1 214/22/1 215/23/1 216/24/1
f 217/21/1 218/22/1 219/23/1 220/24/1
f 221/21/1 222/22/1 223/23/1 224/24/1
f 225/21/1 226/22/1 227/23/1 228/24/1
f 229/21/1 230/22/1 231/23/1 232/24/1
f 233/21/1 234/22/1 235/23/1 236/24/1
f 237/21/1 238/22/1 239/23/1 240/24/1
f 241/21/1 242/22/1 243/23/1 244/24/1
f 245/21/1 246/22/1 247/23/1 248/24/1
f 249/21/1 250/22/1 251/23/1 252/24/1
f 253/21/1 254/22/1 255/23/1 256/24/1
f 257/33/1 258/34/1 259/35/1 260/36/1
f 261/37/1 262/38/1 263/39/1 264/40/1
f 265/33/1 266/34/1 267/35/1 268/36/1
f 269/33/1 270/34/1 271/35/1 272/36/1
f 273/37/1 274/38/1 275/39/1 276/40/1
f 277/41/1 278/42/1 279/43/1 280/44/1
f 281/33/1 282/34/1 283/35/1 284/36/1
f 285/33/1 286/34/1 287/35/1 288/36/1
f 289/33/1 290/34/1 291/35/1 292/36/1
f 293/33/1 294/34/1 295/35/1 296/36/1
f 297/33/1 298/34/1 299/35/1 300/36/1
f 301/37/1 302/38/1 303/39/1 304/40/1
f 305/33/1 306/34/1 307/35/1 308/36/1
f 309/41/1 310/42/1 311/43/1 312/44/1
f 313/33/1 314/34/1 315/35/1 316/36/1
f 317/33/1 318/34/1 319/35/1 320/36/1
f 321/41/1 322/42/1 323/43/1 324/44/1
f 325/33/1 326/34/1 327/35/1 328/36/1
f 329/33/1 330/34/1 331/35/1 332/36/1
f 333/33/1 334/34/1 335/35/1 336/36/1
f 337/41/1 338/42/1 339/43/1 340/44/1
f 341/37/1 342/38/1 343/39/1 344/40/1
f 345/33/1 346/34/1 347/35/1 348/36/1
f 349/33/1 350/34/1 351/35/1 352/36/1
f 353/37/1 354/38/1 355/39/1 356/40/1
f 357/41/1 358/42/1 359/43/1 360/44/1
f 361/33/1 362/34/1 363/35/1 364/36/1
f 365/37/1 366/38/1 367/39/1 368/40/1

