# Tiled2Unity generated file. Do not modify by hand.
# Wavefront file for 'Dirt_red_mesh_0001.obj'

# Vertices (Count = 436)
v -1 -6 0
v -2 -6 0
v -2 -5 0
v -1 -5 0
v 0 -10 0
v -1 -10 0
v -1 -9 0
v 0 -9 0
v -1 -10 0
v -2 -10 0
v -2 -9 0
v -1 -9 0
v -2 -10 0
v -3 -10 0
v -3 -9 0
v -2 -9 0
v -3 -10 0
v -4 -10 0
v -4 -9 0
v -3 -9 0
v -4 -10 0
v -5 -10 0
v -5 -9 0
v -4 -9 0
v -5 -10 0
v -6 -10 0
v -6 -9 0
v -5 -9 0
v -6 -10 0
v -7 -10 0
v -7 -9 0
v -6 -9 0
v -7 -10 0
v -8 -10 0
v -8 -9 0
v -7 -9 0
v -8 -10 0
v -9 -10 0
v -9 -9 0
v -8 -9 0
v -9 -10 0
v -10 -10 0
v -10 -9 0
v -9 -9 0
v -10 -10 0
v -11 -10 0
v -11 -9 0
v -10 -9 0
v -11 -10 0
v -12 -10 0
v -12 -9 0
v -11 -9 0
v -15 -10 0
v -16 -10 0
v -16 -9 0
v -15 -9 0
v -16 -10 0
v -17 -10 0
v -17 -9 0
v -16 -9 0
v -17 -10 0
v -18 -10 0
v -18 -9 0
v -17 -9 0
v -18 -10 0
v -19 -10 0
v -19 -9 0
v -18 -9 0
v -19 -10 0
v -20 -10 0
v -20 -9 0
v -19 -9 0
v -20 -10 0
v -21 -10 0
v -21 -9 0
v -20 -9 0
v -21 -10 0
v -22 -10 0
v -22 -9 0
v -21 -9 0
v -22 -10 0
v -23 -10 0
v -23 -9 0
v -22 -9 0
v -23 -10 0
v -24 -10 0
v -24 -9 0
v -23 -9 0
v -24 -10 0
v -25 -10 0
v -25 -9 0
v -24 -9 0
v -25 -10 0
v -26 -10 0
v -26 -9 0
v -25 -9 0
v -26 -10 0
v -27 -10 0
v -27 -9 0
v -26 -9 0
v -27 -10 0
v -28 -10 0
v -28 -9 0
v -27 -9 0
v -28 -10 0
v -29 -10 0
v -29 -9 0
v -28 -9 0
v -29 -10 0
v -30 -10 0
v -30 -9 0
v -29 -9 0
v 0 -11 0
v -1 -11 0
v -1 -10 0
v 0 -10 0
v -1 -11 0
v -2 -11 0
v -2 -10 0
v -1 -10 0
v -2 -11 0
v -3 -11 0
v -3 -10 0
v -2 -10 0
v -3 -11 0
v -4 -11 0
v -4 -10 0
v -3 -10 0
v -4 -11 0
v -5 -11 0
v -5 -10 0
v -4 -10 0
v -5 -11 0
v -6 -11 0
v -6 -10 0
v -5 -10 0
v -6 -11 0
v -7 -11 0
v -7 -10 0
v -6 -10 0
v -7 -11 0
v -8 -11 0
v -8 -10 0
v -7 -10 0
v -8 -11 0
v -9 -11 0
v -9 -10 0
v -8 -10 0
v -9 -11 0
v -10 -11 0
v -10 -10 0
v -9 -10 0
v -10 -11 0
v -11 -11 0
v -11 -10 0
v -10 -10 0
v -11 -11 0
v -12 -11 0
v -12 -10 0
v -11 -10 0
v -15 -11 0
v -16 -11 0
v -16 -10 0
v -15 -10 0
v -16 -11 0
v -17 -11 0
v -17 -10 0
v -16 -10 0
v -17 -11 0
v -18 -11 0
v -18 -10 0
v -17 -10 0
v -18 -11 0
v -19 -11 0
v -19 -10 0
v -18 -10 0
v -19 -11 0
v -20 -11 0
v -20 -10 0
v -19 -10 0
v -20 -11 0
v -21 -11 0
v -21 -10 0
v -20 -10 0
v -21 -11 0
v -22 -11 0
v -22 -10 0
v -21 -10 0
v -22 -11 0
v -23 -11 0
v -23 -10 0
v -22 -10 0
v -23 -11 0
v -24 -11 0
v -24 -10 0
v -23 -10 0
v -24 -11 0
v -25 -11 0
v -25 -10 0
v -24 -10 0
v -25 -11 0
v -26 -11 0
v -26 -10 0
v -25 -10 0
v -26 -11 0
v -27 -11 0
v -27 -10 0
v -26 -10 0
v -27 -11 0
v -28 -11 0
v -28 -10 0
v -27 -10 0
v -28 -11 0
v -29 -11 0
v -29 -10 0
v -28 -10 0
v -29 -11 0
v -30 -11 0
v -30 -10 0
v -29 -10 0
v 0 -12 0
v -1 -12 0
v -1 -11 0
v 0 -11 0
v -1 -12 0
v -2 -12 0
v -2 -11 0
v -1 -11 0
v -2 -12 0
v -3 -12 0
v -3 -11 0
v -2 -11 0
v -3 -12 0
v -4 -12 0
v -4 -11 0
v -3 -11 0
v -4 -12 0
v -5 -12 0
v -5 -11 0
v -4 -11 0
v -5 -12 0
v -6 -12 0
v -6 -11 0
v -5 -11 0
v -6 -12 0
v -7 -12 0
v -7 -11 0
v -6 -11 0
v -7 -12 0
v -8 -12 0
v -8 -11 0
v -7 -11 0
v -8 -12 0
v -9 -12 0
v -9 -11 0
v -8 -11 0
v -9 -12 0
v -10 -12 0
v -10 -11 0
v -9 -11 0
v -10 -12 0
v -11 -12 0
v -11 -11 0
v -10 -11 0
v -11 -12 0
v -12 -12 0
v -12 -11 0
v -11 -11 0
v -15 -12 0
v -16 -12 0
v -16 -11 0
v -15 -11 0
v -16 -12 0
v -17 -12 0
v -17 -11 0
v -16 -11 0
v -17 -12 0
v -18 -12 0
v -18 -11 0
v -17 -11 0
v -18 -12 0
v -19 -12 0
v -19 -11 0
v -18 -11 0
v -19 -12 0
v -20 -12 0
v -20 -11 0
v -19 -11 0
v -20 -12 0
v -21 -12 0
v -21 -11 0
v -20 -11 0
v -21 -12 0
v -22 -12 0
v -22 -11 0
v -21 -11 0
v -22 -12 0
v -23 -12 0
v -23 -11 0
v -22 -11 0
v -23 -12 0
v -24 -12 0
v -24 -11 0
v -23 -11 0
v -24 -12 0
v -25 -12 0
v -25 -11 0
v -24 -11 0
v -25 -12 0
v -26 -12 0
v -26 -11 0
v -25 -11 0
v -26 -12 0
v -27 -12 0
v -27 -11 0
v -26 -11 0
v -27 -12 0
v -28 -12 0
v -28 -11 0
v -27 -11 0
v -28 -12 0
v -29 -12 0
v -29 -11 0
v -28 -11 0
v -29 -12 0
v -30 -12 0
v -30 -11 0
v -29 -11 0
v 0 -13 0
v -1 -13 0
v -1 -12 0
v 0 -12 0
v -1 -13 0
v -2 -13 0
v -2 -12 0
v -1 -12 0
v -2 -13 0
v -3 -13 0
v -3 -12 0
v -2 -12 0
v -3 -13 0
v -4 -13 0
v -4 -12 0
v -3 -12 0
v -4 -13 0
v -5 -13 0
v -5 -12 0
v -4 -12 0
v -5 -13 0
v -6 -13 0
v -6 -12 0
v -5 -12 0
v -6 -13 0
v -7 -13 0
v -7 -12 0
v -6 -12 0
v -7 -13 0
v -8 -13 0
v -8 -12 0
v -7 -12 0
v -8 -13 0
v -9 -13 0
v -9 -12 0
v -8 -12 0
v -9 -13 0
v -10 -13 0
v -10 -12 0
v -9 -12 0
v -10 -13 0
v -11 -13 0
v -11 -12 0
v -10 -12 0
v -11 -13 0
v -12 -13 0
v -12 -12 0
v -11 -12 0
v -15 -13 0
v -16 -13 0
v -16 -12 0
v -15 -12 0
v -16 -13 0
v -17 -13 0
v -17 -12 0
v -16 -12 0
v -17 -13 0
v -18 -13 0
v -18 -12 0
v -17 -12 0
v -18 -13 0
v -19 -13 0
v -19 -12 0
v -18 -12 0
v -19 -13 0
v -20 -13 0
v -20 -12 0
v -19 -12 0
v -20 -13 0
v -21 -13 0
v -21 -12 0
v -20 -12 0
v -21 -13 0
v -22 -13 0
v -22 -12 0
v -21 -12 0
v -22 -13 0
v -23 -13 0
v -23 -12 0
v -22 -12 0
v -23 -13 0
v -24 -13 0
v -24 -12 0
v -23 -12 0
v -24 -13 0
v -25 -13 0
v -25 -12 0
v -24 -12 0
v -25 -13 0
v -26 -13 0
v -26 -12 0
v -25 -12 0
v -26 -13 0
v -27 -13 0
v -27 -12 0
v -26 -12 0
v -27 -13 0
v -28 -13 0
v -28 -12 0
v -27 -12 0
v -28 -13 0
v -29 -13 0
v -29 -12 0
v -28 -12 0
v -29 -13 0
v -30 -13 0
v -30 -12 0
v -29 -12 0

# Texture cooridinates (Count = 44)
vt 0.6667888 0.0001220703
vt 0.9998779 0.0001220703
vt 0.9998779 0.2498779
vt 0.6667888 0.2498779
vt 0.6667888 0.7501221
vt 0.9998779 0.7501221
vt 0.9998779 0.9998779
vt 0.6667888 0.9998779
vt 0.0001220703 0.7501221
vt 0.3332113 0.7501221
vt 0.3332113 0.9998779
vt 0.0001220703 0.9998779
vt 0.3334554 0.7501221
vt 0.6665446 0.7501221
vt 0.6665446 0.9998779
vt 0.3334554 0.9998779
vt 0.0001220703 0.0001220703
vt 0.3332113 0.0001220703
vt 0.3332113 0.2498779
vt 0.0001220703 0.2498779
vt 0.0001220703 0.5001221
vt 0.3332113 0.5001221
vt 0.3332113 0.7498779
vt 0.0001220703 0.7498779
vt 0.3334554 0.5001221
vt 0.6665446 0.5001221
vt 0.6665446 0.7498779
vt 0.3334554 0.7498779
vt 0.6667888 0.5001221
vt 0.9998779 0.5001221
vt 0.9998779 0.7498779
vt 0.6667888 0.7498779
vt 0.3334554 0.2501221
vt 0.6665446 0.2501221
vt 0.6665446 0.4998779
vt 0.3334554 0.4998779
vt 0.0001220703 0.2501221
vt 0.3332113 0.2501221
vt 0.3332113 0.4998779
vt 0.0001220703 0.4998779
vt 0.6667888 0.2501221
vt 0.9998779 0.2501221
vt 0.9998779 0.4998779
vt 0.6667888 0.4998779

# Normal
vn 0 0 -1

# Mesh description
g Dirt_red_mesh_0001

# Faces
f 1/1/1 2/2/1 3/3/1 4/4/1
f 5/5/1 6/6/1 7/7/1 8/8/1
f 9/9/1 10/10/1 11/11/1 12/12/1
f 13/13/1 14/14/1 15/15/1 16/16/1
f 17/5/1 18/6/1 19/7/1 20/8/1
f 21/9/1 22/10/1 23/11/1 24/12/1
f 25/9/1 26/10/1 27/11/1 28/12/1
f 29/13/1 30/14/1 31/15/1 32/16/1
f 33/9/1 34/10/1 35/11/1 36/12/1
f 37/9/1 38/10/1 39/11/1 40/12/1
f 41/5/1 42/6/1 43/7/1 44/8/1
f 45/9/1 46/10/1 47/11/1 48/12/1
f 49/9/1 50/10/1 51/11/1 52/12/1
f 53/9/1 54/10/1 55/11/1 56/12/1
f 57/9/1 58/10/1 59/11/1 60/12/1
f 61/9/1 62/10/1 63/11/1 64/12/1
f 65/9/1 66/10/1 67/11/1 68/12/1
f 69/5/1 70/6/1 71/7/1 72/8/1
f 73/9/1 74/10/1 75/11/1 76/12/1
f 77/9/1 78/10/1 79/11/1 80/12/1
f 81/9/1 82/10/1 83/11/1 84/12/1
f 85/13/1 86/14/1 87/15/1 88/16/1
f 89/9/1 90/10/1 91/11/1 92/12/1
f 93/9/1 94/10/1 95/11/1 96/12/1
f 97/9/1 98/10/1 99/11/1 100/12/1
f 101/5/1 102/6/1 103/7/1 104/8/1
f 105/9/1 106/10/1 107/11/1 108/12/1
f 109/17/1 110/18/1 111/19/1 112/20/1
f 113/21/1 114/22/1 115/23/1 116/24/1
f 117/25/1 118/26/1 119/27/1 120/28/1
f 121/25/1 122/26/1 123/27/1 124/28/1
f 125/25/1 126/26/1 127/27/1 128/28/1
f 129/25/1 130/26/1 131/27/1 132/28/1
f 133/25/1 134/26/1 135/27/1 136/28/1
f 137/25/1 138/26/1 139/27/1 140/28/1
f 141/25/1 142/26/1 143/27/1 144/28/1
f 145/25/1 146/26/1 147/27/1 148/28/1
f 149/21/1 150/22/1 151/23/1 152/24/1
f 153/29/1 154/30/1 155/31/1 156/32/1
f 157/21/1 158/22/1 159/23/1 160/24/1
f 161/21/1 162/22/1 163/23/1 164/24/1
f 165/21/1 166/22/1 167/23/1 168/24/1
f 169/25/1 170/26/1 171/27/1 172/28/1
f 173/25/1 174/26/1 175/27/1 176/28/1
f 177/25/1 178/26/1 179/27/1 180/28/1
f 181/25/1 182/26/1 183/27/1 184/28/1
f 185/25/1 186/26/1 187/27/1 188/28/1
f 189/25/1 190/26/1 191/27/1 192/28/1
f 193/25/1 194/26/1 195/27/1 196/28/1
f 197/25/1 198/26/1 199/27/1 200/28/1
f 201/25/1 202/26/1 203/27/1 204/28/1
f 205/25/1 206/26/1 207/27/1 208/28/1
f 209/25/1 210/26/1 211/27/1 212/28/1
f 213/25/1 214/26/1 215/27/1 216/28/1
f 217/25/1 218/26/1 219/27/1 220/28/1
f 221/25/1 222/26/1 223/27/1 224/28/1
f 225/25/1 226/26/1 227/27/1 228/28/1
f 229/21/1 230/22/1 231/23/1 232/24/1
f 233/29/1 234/30/1 235/31/1 236/32/1
f 237/25/1 238/26/1 239/27/1 240/28/1
f 241/21/1 242/22/1 243/23/1 244/24/1
f 245/25/1 246/26/1 247/27/1 248/28/1
f 249/25/1 250/26/1 251/27/1 252/28/1
f 253/25/1 254/26/1 255/27/1 256/28/1
f 257/25/1 258/26/1 259/27/1 260/28/1
f 261/25/1 262/26/1 263/27/1 264/28/1
f 265/25/1 266/26/1 267/27/1 268/28/1
f 269/25/1 270/26/1 271/27/1 272/28/1
f 273/25/1 274/26/1 275/27/1 276/28/1
f 277/25/1 278/26/1 279/27/1 280/28/1
f 281/29/1 282/30/1 283/31/1 284/32/1
f 285/25/1 286/26/1 287/27/1 288/28/1
f 289/25/1 290/26/1 291/27/1 292/28/1
f 293/29/1 294/30/1 295/31/1 296/32/1
f 297/21/1 298/22/1 299/23/1 300/24/1
f 301/21/1 302/22/1 303/23/1 304/24/1
f 305/21/1 306/22/1 307/23/1 308/24/1
f 309/25/1 310/26/1 311/27/1 312/28/1
f 313/25/1 314/26/1 315/27/1 316/28/1
f 317/25/1 318/26/1 319/27/1 320/28/1
f 321/25/1 322/26/1 323/27/1 324/28/1
f 325/25/1 326/26/1 327/27/1 328/28/1
f 329/33/1 330/34/1 331/35/1 332/36/1
f 333/33/1 334/34/1 335/35/1 336/36/1
f 337/33/1 338/34/1 339/35/1 340/36/1
f 341/37/1 342/38/1 343/39/1 344/40/1
f 345/33/1 346/34/1 347/35/1 348/36/1
f 349/33/1 350/34/1 351/35/1 352/36/1
f 353/33/1 354/34/1 355/35/1 356/36/1
f 357/33/1 358/34/1 359/35/1 360/36/1
f 361/41/1 362/42/1 363/43/1 364/44/1
f 365/37/1 366/38/1 367/39/1 368/40/1
f 369/41/1 370/42/1 371/43/1 372/44/1
f 373/33/1 374/34/1 375/35/1 376/36/1
f 377/37/1 378/38/1 379/39/1 380/40/1
f 381/37/1 382/38/1 383/39/1 384/40/1
f 385/37/1 386/38/1 387/39/1 388/40/1
f 389/37/1 390/38/1 391/39/1 392/40/1
f 393/37/1 394/38/1 395/39/1 396/40/1
f 397/37/1 398/38/1 399/39/1 400/40/1
f 401/37/1 402/38/1 403/39/1 404/40/1
f 405/41/1 406/42/1 407/43/1 408/44/1
f 409/33/1 410/34/1 411/35/1 412/36/1
f 413/33/1 414/34/1 415/35/1 416/36/1
f 417/33/1 418/34/1 419/35/1 420/36/1
f 421/33/1 422/34/1 423/35/1 424/36/1
f 425/33/1 426/34/1 427/35/1 428/36/1
f 429/33/1 430/34/1 431/35/1 432/36/1
f 433/41/1 434/42/1 435/43/1 436/44/1

