# Tiled2Unity generated file. Do not modify by hand.
# Wavefront file for 'Dirt_red_mesh_0001.obj'

# Vertices (Count = 364)
v -0.5 -6.5 0
v -1 -6.5 0
v -1 -6 0
v -0.5 -6 0
v -2.5 -8 0
v -3 -8 0
v -3 -7.5 0
v -2.5 -7.5 0
v -3 -8 0
v -3.5 -8 0
v -3.5 -7.5 0
v -3 -7.5 0
v -3.5 -8 0
v -4 -8 0
v -4 -7.5 0
v -3.5 -7.5 0
v -4 -8 0
v -4.5 -8 0
v -4.5 -7.5 0
v -4 -7.5 0
v -4.5 -8 0
v -5 -8 0
v -5 -7.5 0
v -4.5 -7.5 0
v -5 -8 0
v -5.5 -8 0
v -5.5 -7.5 0
v -5 -7.5 0
v 0 -8.5 0
v -0.5 -8.5 0
v -0.5 -8 0
v 0 -8 0
v -0.5 -8.5 0
v -1 -8.5 0
v -1 -8 0
v -0.5 -8 0
v -1 -8.5 0
v -1.5 -8.5 0
v -1.5 -8 0
v -1 -8 0
v -1.5 -8.5 0
v -2 -8.5 0
v -2 -8 0
v -1.5 -8 0
v -2 -8.5 0
v -2.5 -8.5 0
v -2.5 -8 0
v -2 -8 0
v -2.5 -8.5 0
v -3 -8.5 0
v -3 -8 0
v -2.5 -8 0
v -3 -8.5 0
v -3.5 -8.5 0
v -3.5 -8 0
v -3 -8 0
v -3.5 -8.5 0
v -4 -8.5 0
v -4 -8 0
v -3.5 -8 0
v -4 -8.5 0
v -4.5 -8.5 0
v -4.5 -8 0
v -4 -8 0
v -4.5 -8.5 0
v -5 -8.5 0
v -5 -8 0
v -4.5 -8 0
v -5 -8.5 0
v -5.5 -8.5 0
v -5.5 -8 0
v -5 -8 0
v -5.5 -8.5 0
v -6 -8.5 0
v -6 -8 0
v -5.5 -8 0
v -6 -8.5 0
v -6.5 -8.5 0
v -6.5 -8 0
v -6 -8 0
v -6.5 -8.5 0
v -7 -8.5 0
v -7 -8 0
v -6.5 -8 0
v -8 -8.5 0
v -8.5 -8.5 0
v -8.5 -8 0
v -8 -8 0
v -8.5 -8.5 0
v -9 -8.5 0
v -9 -8 0
v -8.5 -8 0
v -9 -8.5 0
v -9.5 -8.5 0
v -9.5 -8 0
v -9 -8 0
v -9.5 -8.5 0
v -10 -8.5 0
v -10 -8 0
v -9.5 -8 0
v -10 -8.5 0
v -10.5 -8.5 0
v -10.5 -8 0
v -10 -8 0
v -10.5 -8.5 0
v -11 -8.5 0
v -11 -8 0
v -10.5 -8 0
v -11 -8.5 0
v -11.5 -8.5 0
v -11.5 -8 0
v -11 -8 0
v -11.5 -8.5 0
v -12 -8.5 0
v -12 -8 0
v -11.5 -8 0
v -12 -8.5 0
v -12.5 -8.5 0
v -12.5 -8 0
v -12 -8 0
v -12.5 -8.5 0
v -13 -8.5 0
v -13 -8 0
v -12.5 -8 0
v -13 -8.5 0
v -13.5 -8.5 0
v -13.5 -8 0
v -13 -8 0
v -13.5 -8.5 0
v -14 -8.5 0
v -14 -8 0
v -13.5 -8 0
v -14 -8.5 0
v -14.5 -8.5 0
v -14.5 -8 0
v -14 -8 0
v -14.5 -8.5 0
v -15 -8.5 0
v -15 -8 0
v -14.5 -8 0
v 0 -9 0
v -0.5 -9 0
v -0.5 -8.5 0
v 0 -8.5 0
v -0.5 -9 0
v -1 -9 0
v -1 -8.5 0
v -0.5 -8.5 0
v -1 -9 0
v -1.5 -9 0
v -1.5 -8.5 0
v -1 -8.5 0
v -1.5 -9 0
v -2 -9 0
v -2 -8.5 0
v -1.5 -8.5 0
v -2 -9 0
v -2.5 -9 0
v -2.5 -8.5 0
v -2 -8.5 0
v -2.5 -9 0
v -3 -9 0
v -3 -8.5 0
v -2.5 -8.5 0
v -3 -9 0
v -3.5 -9 0
v -3.5 -8.5 0
v -3 -8.5 0
v -3.5 -9 0
v -4 -9 0
v -4 -8.5 0
v -3.5 -8.5 0
v -4 -9 0
v -4.5 -9 0
v -4.5 -8.5 0
v -4 -8.5 0
v -4.5 -9 0
v -5 -9 0
v -5 -8.5 0
v -4.5 -8.5 0
v -5 -9 0
v -5.5 -9 0
v -5.5 -8.5 0
v -5 -8.5 0
v -5.5 -9 0
v -6 -9 0
v -6 -8.5 0
v -5.5 -8.5 0
v -6 -9 0
v -6.5 -9 0
v -6.5 -8.5 0
v -6 -8.5 0
v -6.5 -9 0
v -7 -9 0
v -7 -8.5 0
v -6.5 -8.5 0
v -8 -9 0
v -8.5 -9 0
v -8.5 -8.5 0
v -8 -8.5 0
v -8.5 -9 0
v -9 -9 0
v -9 -8.5 0
v -8.5 -8.5 0
v -9 -9 0
v -9.5 -9 0
v -9.5 -8.5 0
v -9 -8.5 0
v -9.5 -9 0
v -10 -9 0
v -10 -8.5 0
v -9.5 -8.5 0
v -10 -9 0
v -10.5 -9 0
v -10.5 -8.5 0
v -10 -8.5 0
v -10.5 -9 0
v -11 -9 0
v -11 -8.5 0
v -10.5 -8.5 0
v -11 -9 0
v -11.5 -9 0
v -11.5 -8.5 0
v -11 -8.5 0
v -11.5 -9 0
v -12 -9 0
v -12 -8.5 0
v -11.5 -8.5 0
v -12 -9 0
v -12.5 -9 0
v -12.5 -8.5 0
v -12 -8.5 0
v -12.5 -9 0
v -13 -9 0
v -13 -8.5 0
v -12.5 -8.5 0
v -13 -9 0
v -13.5 -9 0
v -13.5 -8.5 0
v -13 -8.5 0
v -13.5 -9 0
v -14 -9 0
v -14 -8.5 0
v -13.5 -8.5 0
v -14 -9 0
v -14.5 -9 0
v -14.5 -8.5 0
v -14 -8.5 0
v -14.5 -9 0
v -15 -9 0
v -15 -8.5 0
v -14.5 -8.5 0
v 0 -9.5 0
v -0.5 -9.5 0
v -0.5 -9 0
v 0 -9 0
v -0.5 -9.5 0
v -1 -9.5 0
v -1 -9 0
v -0.5 -9 0
v -1 -9.5 0
v -1.5 -9.5 0
v -1.5 -9 0
v -1 -9 0
v -1.5 -9.5 0
v -2 -9.5 0
v -2 -9 0
v -1.5 -9 0
v -2 -9.5 0
v -2.5 -9.5 0
v -2.5 -9 0
v -2 -9 0
v -2.5 -9.5 0
v -3 -9.5 0
v -3 -9 0
v -2.5 -9 0
v -3 -9.5 0
v -3.5 -9.5 0
v -3.5 -9 0
v -3 -9 0
v -3.5 -9.5 0
v -4 -9.5 0
v -4 -9 0
v -3.5 -9 0
v -4 -9.5 0
v -4.5 -9.5 0
v -4.5 -9 0
v -4 -9 0
v -4.5 -9.5 0
v -5 -9.5 0
v -5 -9 0
v -4.5 -9 0
v -5 -9.5 0
v -5.5 -9.5 0
v -5.5 -9 0
v -5 -9 0
v -5.5 -9.5 0
v -6 -9.5 0
v -6 -9 0
v -5.5 -9 0
v -6 -9.5 0
v -6.5 -9.5 0
v -6.5 -9 0
v -6 -9 0
v -6.5 -9.5 0
v -7 -9.5 0
v -7 -9 0
v -6.5 -9 0
v -8 -9.5 0
v -8.5 -9.5 0
v -8.5 -9 0
v -8 -9 0
v -8.5 -9.5 0
v -9 -9.5 0
v -9 -9 0
v -8.5 -9 0
v -9 -9.5 0
v -9.5 -9.5 0
v -9.5 -9 0
v -9 -9 0
v -9.5 -9.5 0
v -10 -9.5 0
v -10 -9 0
v -9.5 -9 0
v -10 -9.5 0
v -10.5 -9.5 0
v -10.5 -9 0
v -10 -9 0
v -10.5 -9.5 0
v -11 -9.5 0
v -11 -9 0
v -10.5 -9 0
v -11 -9.5 0
v -11.5 -9.5 0
v -11.5 -9 0
v -11 -9 0
v -11.5 -9.5 0
v -12 -9.5 0
v -12 -9 0
v -11.5 -9 0
v -12 -9.5 0
v -12.5 -9.5 0
v -12.5 -9 0
v -12 -9 0
v -12.5 -9.5 0
v -13 -9.5 0
v -13 -9 0
v -12.5 -9 0
v -13 -9.5 0
v -13.5 -9.5 0
v -13.5 -9 0
v -13 -9 0
v -13.5 -9.5 0
v -14 -9.5 0
v -14 -9 0
v -13.5 -9 0
v -14 -9.5 0
v -14.5 -9.5 0
v -14.5 -9 0
v -14 -9 0
v -14.5 -9.5 0
v -15 -9.5 0
v -15 -9 0
v -14.5 -9 0

# Texture cooridinates (Count = 44)
vt 0.6667888 0.0001220703
vt 0.9998779 0.0001220703
vt 0.9998779 0.2498779
vt 0.6667888 0.2498779
vt 0.6667888 0.7501221
vt 0.9998779 0.7501221
vt 0.9998779 0.9998779
vt 0.6667888 0.9998779
vt 0.3334554 0.7501221
vt 0.6665446 0.7501221
vt 0.6665446 0.9998779
vt 0.3334554 0.9998779
vt 0.0001220703 0.7501221
vt 0.3332113 0.7501221
vt 0.3332113 0.9998779
vt 0.0001220703 0.9998779
vt 0.3334554 0.5001221
vt 0.6665446 0.5001221
vt 0.6665446 0.7498779
vt 0.3334554 0.7498779
vt 0.6667888 0.5001221
vt 0.9998779 0.5001221
vt 0.9998779 0.7498779
vt 0.6667888 0.7498779
vt 0.0001220703 0.5001221
vt 0.3332113 0.5001221
vt 0.3332113 0.7498779
vt 0.0001220703 0.7498779
vt 0.0001220703 0.0001220703
vt 0.3332113 0.0001220703
vt 0.3332113 0.2498779
vt 0.0001220703 0.2498779
vt 0.3334554 0.2501221
vt 0.6665446 0.2501221
vt 0.6665446 0.4998779
vt 0.3334554 0.4998779
vt 0.0001220703 0.2501221
vt 0.3332113 0.2501221
vt 0.3332113 0.4998779
vt 0.0001220703 0.4998779
vt 0.6667888 0.2501221
vt 0.9998779 0.2501221
vt 0.9998779 0.4998779
vt 0.6667888 0.4998779

# Normal
vn 0 0 -1

# Mesh description
g Dirt_red_mesh_0001

# Faces
f 1/1/1 2/2/1 3/3/1 4/4/1
f 5/5/1 6/6/1 7/7/1 8/8/1
f 9/9/1 10/10/1 11/11/1 12/12/1
f 13/13/1 14/14/1 15/15/1 16/16/1
f 17/5/1 18/6/1 19/7/1 20/8/1
f 21/13/1 22/14/1 23/15/1 24/16/1
f 25/5/1 26/6/1 27/7/1 28/8/1
f 29/9/1 30/10/1 31/11/1 32/12/1
f 33/13/1 34/14/1 35/15/1 36/16/1
f 37/5/1 38/6/1 39/7/1 40/8/1
f 41/13/1 42/14/1 43/15/1 44/16/1
f 45/5/1 46/6/1 47/7/1 48/8/1
f 49/17/1 50/18/1 51/19/1 52/20/1
f 53/17/1 54/18/1 55/19/1 56/20/1
f 57/21/1 58/22/1 59/23/1 60/24/1
f 61/17/1 62/18/1 63/19/1 64/20/1
f 65/25/1 66/26/1 67/27/1 68/28/1
f 69/21/1 70/22/1 71/23/1 72/24/1
f 73/13/1 74/14/1 75/15/1 76/16/1
f 77/25/1 78/26/1 79/27/1 80/28/1
f 81/9/1 82/10/1 83/11/1 84/12/1
f 85/13/1 86/14/1 87/15/1 88/16/1
f 89/5/1 90/6/1 91/7/1 92/8/1
f 93/13/1 94/14/1 95/15/1 96/16/1
f 97/9/1 98/10/1 99/11/1 100/12/1
f 101/13/1 102/14/1 103/15/1 104/16/1
f 105/13/1 106/14/1 107/15/1 108/16/1
f 109/13/1 110/14/1 111/15/1 112/16/1
f 113/13/1 114/14/1 115/15/1 116/16/1
f 117/5/1 118/6/1 119/7/1 120/8/1
f 121/13/1 122/14/1 123/15/1 124/16/1
f 125/13/1 126/14/1 127/15/1 128/16/1
f 129/13/1 130/14/1 131/15/1 132/16/1
f 133/5/1 134/6/1 135/7/1 136/8/1
f 137/29/1 138/30/1 139/31/1 140/32/1
f 141/17/1 142/18/1 143/19/1 144/20/1
f 145/17/1 146/18/1 147/19/1 148/20/1
f 149/17/1 150/18/1 151/19/1 152/20/1
f 153/17/1 154/18/1 155/19/1 156/20/1
f 157/17/1 158/18/1 159/19/1 160/20/1
f 161/17/1 162/18/1 163/19/1 164/20/1
f 165/17/1 166/18/1 167/19/1 168/20/1
f 169/25/1 170/26/1 171/27/1 172/28/1
f 173/17/1 174/18/1 175/19/1 176/20/1
f 177/17/1 178/18/1 179/19/1 180/20/1
f 181/17/1 182/18/1 183/19/1 184/20/1
f 185/17/1 186/18/1 187/19/1 188/20/1
f 189/17/1 190/18/1 191/19/1 192/20/1
f 193/17/1 194/18/1 195/19/1 196/20/1
f 197/17/1 198/18/1 199/19/1 200/20/1
f 201/17/1 202/18/1 203/19/1 204/20/1
f 205/17/1 206/18/1 207/19/1 208/20/1
f 209/17/1 210/18/1 211/19/1 212/20/1
f 213/17/1 214/18/1 215/19/1 216/20/1
f 217/17/1 218/18/1 219/19/1 220/20/1
f 221/17/1 222/18/1 223/19/1 224/20/1
f 225/17/1 226/18/1 227/19/1 228/20/1
f 229/17/1 230/18/1 231/19/1 232/20/1
f 233/17/1 234/18/1 235/19/1 236/20/1
f 237/17/1 238/18/1 239/19/1 240/20/1
f 241/17/1 242/18/1 243/19/1 244/20/1
f 245/17/1 246/18/1 247/19/1 248/20/1
f 249/17/1 250/18/1 251/19/1 252/20/1
f 253/33/1 254/34/1 255/35/1 256/36/1
f 257/37/1 258/38/1 259/39/1 260/40/1
f 261/33/1 262/34/1 263/35/1 264/36/1
f 265/33/1 266/34/1 267/35/1 268/36/1
f 269/37/1 270/38/1 271/39/1 272/40/1
f 273/41/1 274/42/1 275/43/1 276/44/1
f 277/33/1 278/34/1 279/35/1 280/36/1
f 281/33/1 282/34/1 283/35/1 284/36/1
f 285/33/1 286/34/1 287/35/1 288/36/1
f 289/33/1 290/34/1 291/35/1 292/36/1
f 293/33/1 294/34/1 295/35/1 296/36/1
f 297/37/1 298/38/1 299/39/1 300/40/1
f 301/33/1 302/34/1 303/35/1 304/36/1
f 305/41/1 306/42/1 307/43/1 308/44/1
f 309/37/1 310/38/1 311/39/1 312/40/1
f 313/33/1 314/34/1 315/35/1 316/36/1
f 317/41/1 318/42/1 319/43/1 320/44/1
f 321/33/1 322/34/1 323/35/1 324/36/1
f 325/33/1 326/34/1 327/35/1 328/36/1
f 329/33/1 330/34/1 331/35/1 332/36/1
f 333/41/1 334/42/1 335/43/1 336/44/1
f 337/37/1 338/38/1 339/39/1 340/40/1
f 341/33/1 342/34/1 343/35/1 344/36/1
f 345/33/1 346/34/1 347/35/1 348/36/1
f 349/37/1 350/38/1 351/39/1 352/40/1
f 353/41/1 354/42/1 355/43/1 356/44/1
f 357/33/1 358/34/1 359/35/1 360/36/1
f 361/37/1 362/38/1 363/39/1 364/40/1

